<svg id="Layer_1" data-name="Layer 1" xmlns="http://www.w3.org/2000/svg" viewBox="0 0 113.57 138.37">
  <title>Chocolate</title>
  <g>
    <path d="M71.4,88.8l19.85,54.76,73-26.46L144.42,62.34Zm53,37.34L94.29,137.07l-7.48-20.64L117,105.51Zm-8.92-24.6L85.37,112.47,77.89,91.84l30.16-10.93Zm43,12.24-30.16,10.93-7.48-20.64L151.1,93.14Zm-8.92-24.6L119.5,100.1,112,79.47l30.16-10.93Z" transform="translate(-71.4 -62.34)"/>
    <path d="M81.88,142.47l8.34,23,19.63-15.2,24.81-.91,19.63-15.2,23.93-.88L170,110.54Zm90.69-12.39-20.5.42-18.77,14-22.5,1L93.25,159l-5.18-14.29,79.37-28.76Z" transform="translate(-71.4 -62.34)"/>
    <polygon points="106.8 108.08 42.51 131.38 28.99 94.07 25.02 95.51 40.56 138.37 113.57 111.91 98.04 69.05 93.28 70.77 106.8 108.08"/>
  </g>
</svg>
