<svg xmlns="http://www.w3.org/2000/svg">
	<symbol id="chocolate" viewBox="0 0 113.57 138.37">
		<title>Chocolate</title>
		<g>
			<path d="M71.4,88.8l19.85,54.76,73-26.46L144.42,62.34Zm53,37.34L94.29,137.07l-7.48-20.64L117,105.51Zm-8.92-24.6L85.37,112.47,77.89,91.84l30.16-10.93Zm43,12.24-30.16,10.93-7.48-20.64L151.1,93.14Zm-8.92-24.6L119.5,100.1,112,79.47l30.16-10.93Z" transform="translate(-71.4 -62.34)"/>
			<path d="M81.88,142.47l8.34,23,19.63-15.2,24.81-.91,19.63-15.2,23.93-.88L170,110.54Zm90.69-12.39-20.5.42-18.77,14-22.5,1L93.25,159l-5.18-14.29,79.37-28.76Z" transform="translate(-71.4 -62.34)"/>
			<polygon points="106.8 108.08 42.51 131.38 28.99 94.07 25.02 95.51 40.56 138.37 113.57 111.91 98.04 69.05 93.28 70.77 106.8 108.08"/>
		</g>
	</symbol>

	<symbol id="hamburger" viewBox="0 0 126 84.08">
		<title>Hamburger</title>
		 <rect y="48.08" width="126" height="13" rx="6.5" ry="6.5"/>
		 <path d="M262,122" transform="translate(-58 -54.92)"/>
		 <path d="M161,70c-15.41-15.46-35.4-15.12-39-15-4-.24-21.49-.84-37,12A53.56,53.56,0,0,0,67,97H175A51.73,51.73,0,0,0,161,70ZM90.5,81A1.5,1.5,0,1,1,92,79.5,1.5,1.5,0,0,1,90.5,81Zm9-8a1.5,1.5,0,1,1,1.5-1.5A1.5,1.5,0,0,1,99.5,73Zm13-8a1.5,1.5,0,1,1,1.5-1.5A1.5,1.5,0,0,1,112.5,65Zm3,13a1.5,1.5,0,1,1,1.5-1.5A1.5,1.5,0,0,1,115.5,78Zm13-7a1.5,1.5,0,1,1,1.5-1.5A1.5,1.5,0,0,1,128.5,71Zm6,11a1.5,1.5,0,1,1,1.5-1.5A1.5,1.5,0,0,1,134.5,82Zm6-14a1.5,1.5,0,1,1,1.5-1.5A1.5,1.5,0,0,1,140.5,68Zm11,10a1.5,1.5,0,1,1,1.5-1.5A1.5,1.5,0,0,1,151.5,78Z" transform="translate(-58 -54.92)"/>
		 <path d="M67,122H175a15,15,0,0,1-1,11,14.56,14.56,0,0,1-6,6H75a16.66,16.66,0,0,1-6-6A17,17,0,0,1,67,122Z" transform="translate(-58 -54.92)"/>
	</symbol>

	<symbol id="noodle" viewBox="0 0 136.54 135">
		<title>Noodle</title>
		<path d="M84,133.79v-19l8.15-.55V116a4.58,4.58,0,1,0,9.17,0v-2.32l8.15-.55v1.34a4.61,4.61,0,0,0,9.17,0v-2l61.13-4.15-.55-8.06-60.59,4.11V90.65l54-13.91-2.3-8.93-51.7,13.32V67.22a4.36,4.36,0,0,0-4.08-3.2c-2.36-.2-4.68,1.18-5.09,3.2V83.48l-8.15,2.1V73c-.33-1.56-2-2.75-4.08-2.91-2.36-.18-4.68,1.07-5.09,2.91v14.9L84,90V86.58a4.36,4.36,0,0,0-4.08-3.2c-2.36-.2-4.68,1.18-5.09,3.2v5.83L61.62,95.8l2.3,8.93,10.88-2.8v5.41l-10.34.7L65,116.1l9.79-.66v18.35H58.5c-.12,8,.79,25.36,12.23,41.77A66.48,66.48,0,0,0,83,188.81H97.22V199h59.09V188.81h16.3a84.15,84.15,0,0,0,11.21-15.28A87.07,87.07,0,0,0,195,133.79ZM109.44,93v12l-8.15.55V95.11ZM84,99.57l8.15-2.1v8.7l-8.15.55ZM65.13,138.76H189.42c-.08,1.68-.23,3.63-.51,5.76V143H65.22C65.12,141.35,65.11,139.93,65.13,138.76Zm114.09,32.47A69.76,69.76,0,0,1,169,183.72H87.39a57.16,57.16,0,0,1-11.13-10.82A52.89,52.89,0,0,1,65.59,147H188.54A65.18,65.18,0,0,1,179.22,171.23Z" transform="translate(-58.49 -64)"/>
	</symbol>

	<symbol id="pizza" viewBox="0 0 107.12 131.89">
		<title>Pizza</title>
		<path d="M132.66,82c17.71,10.24,26.93,25.57,32.69,35.78l13.47-9.72A87.41,87.41,0,0,0,88,54L85.51,70.8C97.39,71.11,115.69,72.19,132.66,82Z" transform="translate(-71.69 -53.48)"/>
		<path d="M80.38,113.33a7.5,7.5,0,1,1-1.5,13.59l-.13-.09-7.06,58.54,84-60.6C150,114.8,141,102,126.05,93.2s-30.46-10.47-42-10.66Zm52.26,1.18a9.5,9.5,0,1,1-13,3.36A9.5,9.5,0,0,1,132.64,114.5ZM98.46,141.94a6,6,0,1,1-8.22,2.12A6,6,0,0,1,98.46,141.94Z" transform="translate(-71.69 -53.48)"/>
	</symbol>

	<symbol id="grape" viewBox="0 0 86.75 120">
		<title>Grape</title>
		 <g>
		    <path d="M115.92,88a14.46,14.46,0,1,0,14.46,14.46A14.46,14.46,0,0,0,115.92,88Zm0,26.51a12,12,0,1,1,12-12A12,12,0,0,1,115.92,114.51Z" transform="translate(-87 -68)"/>
		    <path d="M130.37,110.89a14.46,14.46,0,1,0,14.46,14.46A14.46,14.46,0,0,0,130.37,110.89Zm0,26.51a12,12,0,1,1,12-12A12,12,0,0,1,130.37,137.4Z" transform="translate(-87 -68)"/>
		    <path d="M101.46,110.89a14.46,14.46,0,1,0,14.46,14.46A14.46,14.46,0,0,0,101.46,110.89Zm0,26.51a12,12,0,1,1,12-12A12,12,0,0,1,101.46,137.4Z" transform="translate(-87 -68)"/>
		    <path d="M144.83,88a14.46,14.46,0,1,0,14.46,14.46A14.46,14.46,0,0,0,144.83,88Zm0,26.51a12,12,0,1,1,12-12A12,12,0,0,1,144.83,114.51Z" transform="translate(-87 -68)"/>
		    <path d="M159.29,110.89a14.46,14.46,0,1,0,14.46,14.46A14.46,14.46,0,0,0,159.29,110.89Zm0,26.51a12,12,0,1,1,12-12A12,12,0,0,1,159.29,137.4Z" transform="translate(-87 -68)"/>
		    <path d="M115.92,136.19a14.46,14.46,0,1,0,14.46,14.46A14.46,14.46,0,0,0,115.92,136.19Zm0,26.51a12,12,0,1,1,12-12A12,12,0,0,1,115.92,162.7Z" transform="translate(-87 -68)"/>
		    <path d="M144.83,133.78a14.46,14.46,0,1,0,14.46,14.46A14.46,14.46,0,0,0,144.83,133.78Zm0,26.51a12,12,0,1,1,12-12A12,12,0,0,1,144.83,160.29Z" transform="translate(-87 -68)"/>
		    <path d="M132.78,159.08a14.46,14.46,0,1,0,14.46,14.46A14.46,14.46,0,0,0,132.78,159.08Zm0,26.51a12,12,0,1,1,12-12A12,12,0,0,1,132.78,185.59Z" transform="translate(-87 -68)"/>
		    <rect x="8.43" y="13.97" width="71.09" height="8.43"/>
		    <polygon points="45.6 19.59 39.1 16.42 47.94 0 54.44 3.17 45.6 19.59"/>
		 </g>
	</symbol>
</svg>


