<svg id="Layer_1" data-name="Layer 1" xmlns="http://www.w3.org/2000/svg" viewBox="0 0 86.75 120">
  <title>Grape</title>
  <g>
    <path d="M115.92,88a14.46,14.46,0,1,0,14.46,14.46A14.46,14.46,0,0,0,115.92,88Zm0,26.51a12,12,0,1,1,12-12A12,12,0,0,1,115.92,114.51Z" transform="translate(-87 -68)"/>
    <path d="M130.37,110.89a14.46,14.46,0,1,0,14.46,14.46A14.46,14.46,0,0,0,130.37,110.89Zm0,26.51a12,12,0,1,1,12-12A12,12,0,0,1,130.37,137.4Z" transform="translate(-87 -68)"/>
    <path d="M101.46,110.89a14.46,14.46,0,1,0,14.46,14.46A14.46,14.46,0,0,0,101.46,110.89Zm0,26.51a12,12,0,1,1,12-12A12,12,0,0,1,101.46,137.4Z" transform="translate(-87 -68)"/>
    <path d="M144.83,88a14.46,14.46,0,1,0,14.46,14.46A14.46,14.46,0,0,0,144.83,88Zm0,26.51a12,12,0,1,1,12-12A12,12,0,0,1,144.83,114.51Z" transform="translate(-87 -68)"/>
    <path d="M159.29,110.89a14.46,14.46,0,1,0,14.46,14.46A14.46,14.46,0,0,0,159.29,110.89Zm0,26.51a12,12,0,1,1,12-12A12,12,0,0,1,159.29,137.4Z" transform="translate(-87 -68)"/>
    <path d="M115.92,136.19a14.46,14.46,0,1,0,14.46,14.46A14.46,14.46,0,0,0,115.92,136.19Zm0,26.51a12,12,0,1,1,12-12A12,12,0,0,1,115.92,162.7Z" transform="translate(-87 -68)"/>
    <path d="M144.83,133.78a14.46,14.46,0,1,0,14.46,14.46A14.46,14.46,0,0,0,144.83,133.78Zm0,26.51a12,12,0,1,1,12-12A12,12,0,0,1,144.83,160.29Z" transform="translate(-87 -68)"/>
    <path d="M132.78,159.08a14.46,14.46,0,1,0,14.46,14.46A14.46,14.46,0,0,0,132.78,159.08Zm0,26.51a12,12,0,1,1,12-12A12,12,0,0,1,132.78,185.59Z" transform="translate(-87 -68)"/>
    <rect x="8.43" y="13.97" width="71.09" height="8.43"/>
    <polygon points="45.6 19.59 39.1 16.42 47.94 0 54.44 3.17 45.6 19.59"/>
  </g>
</svg>
