<svg id="Layer_1" data-name="Layer 1" xmlns="http://www.w3.org/2000/svg" viewBox="0 0 126 84.08">
  <title>Hamburger</title>
  <rect y="48.08" width="126" height="13" rx="6.5" ry="6.5"/>
  <path d="M262,122" transform="translate(-58 -54.92)"/>
  <path d="M161,70c-15.41-15.46-35.4-15.12-39-15-4-.24-21.49-.84-37,12A53.56,53.56,0,0,0,67,97H175A51.73,51.73,0,0,0,161,70ZM90.5,81A1.5,1.5,0,1,1,92,79.5,1.5,1.5,0,0,1,90.5,81Zm9-8a1.5,1.5,0,1,1,1.5-1.5A1.5,1.5,0,0,1,99.5,73Zm13-8a1.5,1.5,0,1,1,1.5-1.5A1.5,1.5,0,0,1,112.5,65Zm3,13a1.5,1.5,0,1,1,1.5-1.5A1.5,1.5,0,0,1,115.5,78Zm13-7a1.5,1.5,0,1,1,1.5-1.5A1.5,1.5,0,0,1,128.5,71Zm6,11a1.5,1.5,0,1,1,1.5-1.5A1.5,1.5,0,0,1,134.5,82Zm6-14a1.5,1.5,0,1,1,1.5-1.5A1.5,1.5,0,0,1,140.5,68Zm11,10a1.5,1.5,0,1,1,1.5-1.5A1.5,1.5,0,0,1,151.5,78Z" transform="translate(-58 -54.92)"/>
  <path d="M67,122H175a15,15,0,0,1-1,11,14.56,14.56,0,0,1-6,6H75a16.66,16.66,0,0,1-6-6A17,17,0,0,1,67,122Z" transform="translate(-58 -54.92)"/>
</svg>
