<svg id="Layer_1" data-name="Layer 1" xmlns="http://www.w3.org/2000/svg" viewBox="0 0 136.54 135">
  <title>Noodle</title>
  <path d="M84,133.79v-19l8.15-.55V116a4.58,4.58,0,1,0,9.17,0v-2.32l8.15-.55v1.34a4.61,4.61,0,0,0,9.17,0v-2l61.13-4.15-.55-8.06-60.59,4.11V90.65l54-13.91-2.3-8.93-51.7,13.32V67.22a4.36,4.36,0,0,0-4.08-3.2c-2.36-.2-4.68,1.18-5.09,3.2V83.48l-8.15,2.1V73c-.33-1.56-2-2.75-4.08-2.91-2.36-.18-4.68,1.07-5.09,2.91v14.9L84,90V86.58a4.36,4.36,0,0,0-4.08-3.2c-2.36-.2-4.68,1.18-5.09,3.2v5.83L61.62,95.8l2.3,8.93,10.88-2.8v5.41l-10.34.7L65,116.1l9.79-.66v18.35H58.5c-.12,8,.79,25.36,12.23,41.77A66.48,66.48,0,0,0,83,188.81H97.22V199h59.09V188.81h16.3a84.15,84.15,0,0,0,11.21-15.28A87.07,87.07,0,0,0,195,133.79ZM109.44,93v12l-8.15.55V95.11ZM84,99.57l8.15-2.1v8.7l-8.15.55ZM65.13,138.76H189.42c-.08,1.68-.23,3.63-.51,5.76V143H65.22C65.12,141.35,65.11,139.93,65.13,138.76Zm114.09,32.47A69.76,69.76,0,0,1,169,183.72H87.39a57.16,57.16,0,0,1-11.13-10.82A52.89,52.89,0,0,1,65.59,147H188.54A65.18,65.18,0,0,1,179.22,171.23Z" transform="translate(-58.49 -64)"/>
</svg>
