<svg id="Layer_1" data-name="Layer 1" xmlns="http://www.w3.org/2000/svg" viewBox="0 0 107.12 131.89">
  <title>Pizza</title>
  <path d="M132.66,82c17.71,10.24,26.93,25.57,32.69,35.78l13.47-9.72A87.41,87.41,0,0,0,88,54L85.51,70.8C97.39,71.11,115.69,72.19,132.66,82Z" transform="translate(-71.69 -53.48)"/>
  <path d="M80.38,113.33a7.5,7.5,0,1,1-1.5,13.59l-.13-.09-7.06,58.54,84-60.6C150,114.8,141,102,126.05,93.2s-30.46-10.47-42-10.66Zm52.26,1.18a9.5,9.5,0,1,1-13,3.36A9.5,9.5,0,0,1,132.64,114.5ZM98.46,141.94a6,6,0,1,1-8.22,2.12A6,6,0,0,1,98.46,141.94Z" transform="translate(-71.69 -53.48)"/>
</svg>
